<!DOCTYPE svg PUBLIC "-//W3C//DTD SVG 20010904//EN" "http://www.w3.org/TR/2001/REC-SVG-20010904/DTD/svg10.dtd">
<svg version="1.0" xmlns="http://www.w3.org/2000/svg" width="1200px" height="729px" viewBox="0 0 12000 7290" preserveAspectRatio="xMidYMid meet">
<g id="layer101" fill="#000000" stroke="none">
 <path d="M5879 7221 c-58 -60 -92 -113 -113 -174 -5 -17 -7 -17 -31 -1 -20 13 -31 15 -50 6 -29 -14 -141 -178 -162 -238 l-15 -43 -27 20 c-36 27 -99 35 -147 19 -65 -21 -74 -34 -74 -112 l0 -68 -38 0 c-52 0 -125 -38 -132 -70 -6 -25 2 -88 15 -122 6 -16 0 -18 -46 -18 -31 0 -84 -11 -124 -25 -121 -43 -145 -75 -106 -141 15 -25 17 -36 8 -39 -6 -2 -29 -9 -49 -15 -50 -15 -118 -66 -118 -88 0 -28 52 -102 111 -158 86 -80 281 -221 447 -323 84 -51 159 -102 165 -113 17 -27 65 -55 110 -63 20 -4 39 -10 41 -14 5 -7 -19 -129 -26 -136 -2 -3 -20 7 -39 21 -21 15 -42 23 -54 20 -16 -4 -37 13 -94 75 -82 90 -153 136 -224 145 -39 6 -51 12 -63 35 -21 42 -68 63 -144 63 -75 0 -108 -14 -121 -53 -10 -28 -10 -28 -50 -15 -53 19 -104 6 -171 -42 -83 -59 -107 -85 -114 -121 -7 -38 -3 -37 -74 -18 -71 19 -110 19 -160 -1 -45 -18 -60 -38 -60 -82 l0 -30 -42 10 c-87 19 -213 -21 -264 -86 -22 -27 -37 -36 -59 -36 -38 -1 -286 -104 -303 -127 -6 -9 -12 -28 -12 -41 0 -19 -4 -23 -17 -17 -10 3 -44 13 -76 22 -53 13 -66 13 -140 -2 -113 -23 -216 -52 -233 -66 -16 -13 -18 -52 -5 -78 8 -15 -1 -18 -87 -28 -187 -23 -217 -47 -217 -173 l0 -79 -60 -6 c-33 -3 -72 -8 -87 -11 -42 -8 -93 -74 -107 -139 -11 -49 -15 -54 -35 -49 -16 4 -41 -9 -91 -45 -119 -86 -164 -129 -176 -171 -8 -27 -19 -40 -35 -44 -33 -9 -68 -60 -92 -136 -37 -113 -42 -150 -28 -192 12 -35 12 -38 -4 -38 -23 0 -144 -86 -198 -141 -63 -64 -75 -92 -69 -157 7 -63 46 -128 125 -207 l51 -50 -130 3 -130 4 -102 -43 c-110 -47 -147 -75 -147 -111 0 -19 -13 -30 -63 -55 -94 -46 -256 -154 -300 -199 -41 -42 -64 -107 -39 -110 4 0 24 -8 44 -17 21 -10 57 -17 80 -17 l43 -1 -91 -47 c-142 -74 -454 -307 -434 -324 3 -3 109 -2 235 2 127 3 231 5 233 4 1 0 -24 -11 -55 -23 -254 -97 -756 -510 -971 -800 -70 -94 -76 -115 -34 -105 84 20 399 148 717 293 l90 41 -45 -38 c-316 -265 -456 -439 -640 -797 -88 -170 -107 -224 -75 -211 28 10 429 284 559 380 71 53 131 96 133 96 2 0 -19 -28 -47 -62 -195 -241 -260 -339 -347 -525 -94 -202 -185 -527 -144 -511 5 2 53 50 106 107 53 58 104 111 114 118 11 7 59 66 109 130 372 488 954 1015 1407 1273 61 35 154 94 208 132 104 73 108 72 41 -7 -41 -50 -74 -105 -74 -125 0 -13 140 -13 227 -1 76 11 235 88 442 215 80 48 179 107 220 131 42 23 258 163 481 311 602 398 845 537 1162 663 108 43 315 111 337 111 4 0 13 -21 19 -47 35 -131 269 -235 577 -258 119 -9 196 5 385 68 126 43 155 56 160 73 5 23 83 87 118 98 12 4 30 18 40 31 22 27 181 84 310 110 l82 17 161 -41 c184 -47 239 -69 399 -156 63 -34 194 -101 290 -148 96 -47 252 -132 345 -188 220 -131 1048 -679 1100 -728 46 -43 200 -137 295 -179 129 -59 341 -116 508 -137 51 -7 52 -6 52 18 0 23 -74 136 -99 151 -6 4 -16 16 -21 27 -7 12 22 -4 72 -39 46 -33 151 -99 233 -147 257 -150 511 -345 800 -611 281 -260 686 -712 836 -934 30 -44 60 -79 67 -80 15 0 15 -6 -3 114 -21 137 -65 291 -120 416 -79 180 -126 255 -280 440 -47 58 -91 113 -96 122 -28 52 398 -233 594 -397 98 -83 127 -99 127 -72 0 24 -180 367 -246 470 -37 56 -95 136 -130 177 -76 90 -243 256 -339 335 -38 32 -72 60 -75 62 -6 5 42 -16 230 -102 280 -128 583 -245 597 -231 9 9 -12 44 -86 143 -124 166 -341 373 -572 547 -143 106 -235 163 -346 212 -43 18 -73 34 -68 34 6 0 106 -14 224 -30 118 -17 221 -28 228 -26 7 3 13 18 13 34 0 23 -11 39 -52 74 -104 89 -295 219 -391 268 l-99 50 49 0 c26 0 70 8 96 17 46 17 48 19 43 48 -4 16 -19 46 -34 65 -31 39 -211 162 -312 214 -49 25 -66 38 -68 57 -4 39 -39 65 -144 109 l-99 41 -138 -3 -137 -3 51 50 c29 28 69 76 89 107 33 50 38 65 40 120 1 60 -1 66 -39 112 -44 54 -201 176 -226 176 -14 0 -15 5 -5 41 9 34 7 55 -12 127 -31 120 -59 173 -105 195 -22 11 -37 26 -37 36 0 33 -59 100 -132 149 -41 27 -80 57 -87 66 -7 9 -28 16 -46 16 -30 0 -32 3 -48 60 -10 34 -30 74 -47 94 -31 35 -38 37 -155 51 l-50 6 3 48 c4 56 -11 121 -36 150 -20 24 -109 49 -208 58 l-71 6 5 47 c4 40 1 50 -15 58 -29 16 -269 72 -307 72 -30 0 -93 -16 -138 -35 -14 -6 -18 -2 -18 18 0 14 -8 34 -17 46 -28 33 -291 137 -324 128 -12 -3 -19 0 -19 8 0 22 -80 83 -131 100 -32 11 -73 15 -119 13 l-69 -3 -11 43 c-9 37 -17 46 -53 62 -53 25 -85 25 -170 1 l-67 -18 0 21 c0 39 -39 84 -116 135 -66 44 -84 51 -126 51 -27 0 -58 -5 -69 -10 -16 -9 -21 -7 -28 12 -15 39 -44 57 -101 63 -76 7 -148 -19 -169 -61 -13 -26 -23 -33 -58 -37 -73 -8 -133 -45 -225 -139 -67 -69 -91 -88 -106 -84 -11 4 -24 0 -32 -9 -17 -21 -30 -19 -30 4 0 32 -11 51 -30 51 -20 0 -36 33 -25 50 3 5 15 10 25 10 36 0 100 32 120 59 10 15 88 70 172 121 338 208 587 428 562 495 -10 24 -87 73 -137 87 l-45 12 19 30 c19 32 24 72 11 92 -21 32 -192 88 -252 82 -33 -3 -39 -1 -35 12 21 52 28 111 17 135 -15 32 -83 64 -134 65 l-38 0 0 68 c0 37 -4 73 -8 80 -5 7 -33 21 -62 32 -58 21 -104 16 -145 -14 -29 -22 -32 -20 -53 27 -22 50 -106 182 -135 215 -24 26 -54 28 -84 7 -20 -14 -22 -13 -28 15 -9 42 -75 139 -123 183 -33 29 -50 37 -80 37 -33 0 -45 -8 -103 -69z m201 -139 c11 -24 25 -66 30 -94 19 -97 8 -564 -13 -585 -10 -10 -59 -6 -106 7 -37 11 -47 11 -71 -4 -57 -33 -67 -25 -77 62 -4 42 -8 174 -7 292 0 251 7 280 95 389 l52 63 38 -43 c21 -24 48 -63 59 -87z m196 -164 c21 -29 53 -89 72 -132 33 -75 34 -83 29 -165 -4 -59 -16 -120 -41 -197 l-36 -111 -56 28 c-31 16 -62 29 -68 29 -6 1 -21 9 -32 18 l-21 18 32 159 c18 88 39 212 46 275 10 95 20 128 36 130 0 0 18 -24 39 -52z m-528 -13 c5 -86 24 -217 53 -358 l29 -149 -23 -18 c-12 -10 -33 -21 -47 -23 -14 -3 -42 -17 -62 -31 -21 -14 -39 -22 -42 -18 -2 4 -18 52 -36 107 -63 199 -51 325 47 468 53 79 77 85 81 22z m869 -280 c-6 -136 -38 -240 -130 -424 l-62 -124 -15 52 c-11 39 -23 56 -47 71 -47 28 -50 57 -15 142 44 106 102 313 102 364 0 1 10 4 23 7 12 3 39 12 60 20 21 8 50 12 64 9 l26 -5 -6 -112z m-1161 88 l53 -18 11 -62 c16 -93 57 -230 90 -302 31 -65 38 -101 20 -101 -5 0 -10 -6 -10 -14 0 -7 -13 -19 -30 -26 -29 -12 -39 -33 -52 -103 -4 -24 -119 207 -152 305 -30 90 -46 181 -46 271 l0 67 32 0 c17 0 55 -8 84 -17z m1284 -175 c50 -11 51 -12 45 -42 -35 -170 -86 -291 -201 -477 l-54 -88 -28 16 c-18 10 -34 33 -44 61 l-17 45 104 211 c56 116 109 228 116 249 15 42 11 41 79 25z m-1421 -81 c19 -45 72 -157 119 -249 81 -160 84 -167 68 -189 -9 -13 -16 -31 -16 -40 0 -14 -59 -56 -65 -47 -1 2 -32 54 -69 116 -92 153 -143 265 -161 353 -8 41 -17 84 -20 95 -4 18 2 23 38 31 71 18 70 18 106 -70z m1616 -123 c19 -8 51 -21 71 -29 l35 -14 -57 -78 c-86 -117 -195 -252 -246 -304 -53 -53 -137 -124 -141 -118 -2 2 -8 11 -15 21 -7 9 -17 30 -21 46 -8 26 -2 41 41 113 28 46 66 115 85 154 19 38 56 107 81 153 l47 83 43 -6 c23 -4 58 -13 77 -21z m-1748 -51 c22 -38 66 -117 96 -178 31 -60 71 -134 90 -164 37 -57 38 -84 5 -130 l-17 -24 -38 29 c-20 15 -62 53 -93 84 -99 99 -310 374 -297 386 14 14 156 63 182 64 27 0 35 -8 72 -67z m963 32 c8 -10 11 -40 9 -90 -3 -45 0 -75 6 -75 6 0 11 10 13 22 1 13 5 42 8 65 l5 43 40 -21 c33 -16 39 -24 33 -41 -5 -16 -3 -20 9 -15 8 3 18 0 20 -7 6 -15 -68 -219 -81 -224 -55 -20 -113 -91 -132 -163 -11 -39 -6 -112 11 -155 10 -29 -29 -48 -67 -34 -37 15 -46 12 -39 -10 5 -15 3 -18 -9 -14 -8 3 -12 12 -9 20 4 12 0 14 -23 8 -37 -9 -35 -9 -66 0 -26 8 -26 9 -12 42 8 18 14 59 14 90 0 85 -64 188 -130 209 -10 3 -21 18 -25 33 -3 15 -20 60 -36 100 -33 85 -35 92 -13 92 10 0 14 7 12 20 -2 15 9 27 40 46 l42 25 0 -33 c0 -50 12 -108 21 -108 4 0 10 39 11 88 3 87 3 87 31 90 15 2 27 -1 27 -6 0 -11 91 -12 105 -2 6 5 30 4 55 0 65 -13 80 -12 80 5 0 19 34 19 50 0z m1013 -184 c20 -12 37 -27 37 -31 0 -5 -24 -35 -54 -68 -49 -52 -121 -109 -426 -332 l-95 -70 -6 63 c-5 42 -3 64 5 69 84 50 188 137 311 263 136 139 152 152 170 141 11 -7 37 -22 58 -35z m-2142 -105 c120 -124 210 -199 325 -270 1 -1 -1 -29 -5 -63 l-6 -63 -95 70 c-305 224 -377 280 -427 334 l-55 59 23 19 c21 16 88 56 97 58 2 0 66 -65 143 -144z m1334 0 l-7 -41 -48 -1 -48 -1 39 60 c22 33 39 67 40 76 0 9 7 1 15 -18 10 -21 13 -47 9 -75z m-684 5 l35 -56 -45 4 c-25 2 -49 8 -53 15 -9 14 -10 73 -1 106 6 22 7 23 17 6 6 -10 27 -44 47 -75z m738 -60 c-15 -5 -22 6 -14 19 6 9 10 9 16 -1 5 -8 4 -15 -2 -18z m-741 -87 c57 -23 92 -62 92 -101 0 -18 4 -33 9 -33 11 0 24 86 16 102 -4 7 2 2 14 -12 11 -14 16 -26 11 -28 -6 -2 -10 -44 -10 -93 0 -94 -8 -123 -44 -151 -33 -26 -10 -34 25 -9 l31 23 -7 -33 c-4 -19 -15 -41 -26 -51 -26 -22 -24 -28 10 -28 38 0 55 23 56 76 0 43 0 44 17 21 10 -12 18 -25 18 -29 0 -19 20 -6 20 13 0 15 4 19 16 15 9 -3 19 -6 24 -6 4 0 13 -20 20 -45 15 -54 30 -50 30 8 0 41 1 42 34 43 27 0 32 -3 28 -18 -7 -29 14 -21 38 15 16 24 20 26 15 9 -10 -35 13 -92 42 -103 48 -18 58 -4 23 31 -11 11 -20 33 -20 50 l0 30 20 -20 c11 -11 28 -20 37 -20 13 0 8 9 -18 36 -33 35 -34 36 -36 130 -1 52 -5 99 -8 104 -3 5 1 20 9 32 16 22 16 21 16 -19 0 -23 3 -48 6 -57 10 -25 24 -8 24 29 0 25 8 40 30 59 38 31 99 51 134 42 25 -6 26 -8 26 -91 0 -46 -4 -86 -8 -89 -5 -3 -16 20 -26 50 -20 64 -46 94 -81 94 -30 0 -65 -32 -65 -60 0 -11 2 -20 5 -20 3 0 14 9 25 20 30 30 54 25 78 -19 33 -58 28 -92 -24 -177 -80 -133 -44 -115 104 50 l53 59 21 -21 21 -20 -30 -54 c-33 -58 -61 -78 -110 -78 -22 0 -33 -5 -33 -14 0 -20 23 -26 82 -20 l53 5 -34 -15 c-18 -9 -59 -16 -91 -16 -69 0 -90 -7 -90 -27 0 -12 8 -15 39 -10 57 7 63 0 51 -63 -5 -29 -10 -54 -10 -56 0 -2 -18 -11 -40 -20 -37 -15 -54 -34 -29 -34 5 0 8 -4 5 -9 -8 -13 21 -34 38 -28 10 4 13 1 9 -9 -6 -16 10 -18 38 -4 17 10 19 7 19 -32 0 -29 -3 -38 -9 -29 -6 9 -18 11 -34 7 -19 -4 -33 1 -55 19 -46 38 -53 31 -31 -32 22 -66 61 -121 94 -133 16 -6 27 -22 35 -48 5 -22 21 -56 35 -77 35 -50 95 -171 95 -189 0 -9 8 -23 19 -33 38 -36 101 -179 134 -303 32 -118 33 -139 6 -140 -4 0 -26 43 -50 95 -23 52 -46 95 -51 95 -4 0 -16 17 -25 37 -11 22 -28 40 -43 44 -14 4 -52 15 -84 24 -37 10 -70 28 -89 47 -41 41 -66 55 -111 63 -26 4 -40 12 -43 26 -3 12 -12 19 -22 17 -9 -2 -24 7 -34 19 -15 18 -28 23 -67 23 -27 0 -52 -5 -55 -10 -4 -6 -10 -8 -14 -5 -4 2 -22 -6 -40 -19 -19 -14 -52 -26 -87 -30 -58 -7 -102 -24 -123 -49 -6 -8 -27 -18 -45 -21 -19 -4 -45 -16 -59 -27 -28 -22 -182 -219 -237 -303 -19 -30 -53 -80 -76 -113 -22 -32 -46 -73 -52 -91 -6 -18 -19 -42 -28 -55 -15 -21 -16 -19 -11 43 8 87 59 293 98 394 17 44 37 102 44 129 26 95 177 346 270 447 55 60 66 80 43 80 -18 0 63 80 87 86 12 3 25 15 30 27 16 34 109 77 169 77 28 0 58 -5 66 -10 10 -6 11 -10 3 -10 -7 0 -13 -4 -13 -9 0 -12 117 -54 129 -46 17 10 13 25 -8 25 -26 0 -83 25 -75 33 10 10 -36 44 -84 63 -53 21 -101 10 -178 -41 -31 -20 -56 -30 -64 -25 -7 4 -10 12 -7 17 3 5 -14 19 -38 31 -38 18 -45 27 -50 59 -3 21 -8 46 -9 55 -5 22 17 29 65 22 22 -4 39 -2 39 3 0 22 -28 33 -86 33 -34 0 -77 7 -95 15 l-34 16 52 -4 c89 -7 116 26 31 37 -49 7 -55 11 -80 51 -38 63 -41 79 -18 100 11 10 21 16 23 14 24 -35 173 -189 183 -189 8 0 14 2 14 5 0 12 -94 152 -116 173 -22 21 -24 31 -24 107 0 57 4 85 13 88 23 10 47 7 85 -9z m-246 -114 c-4 -29 -12 -37 -25 -24 -7 7 13 54 23 54 4 0 5 -13 2 -30z m1133 9 c4 -12 3 -25 -3 -31 -6 -6 -11 1 -14 21 -5 35 7 42 17 10z m-75 -19 c11 -21 4 -25 -19 -11 -7 5 -10 14 -7 20 10 15 14 14 26 -9z m-975 0 c3 -5 4 -10 1 -10 -2 0 -12 -3 -20 -6 -12 -5 -15 -2 -10 10 7 18 20 21 29 6z m-113 -62 c-9 -9 -12 -7 -12 12 0 19 3 21 12 12 9 -9 9 -15 0 -24z m1188 10 c0 -16 -3 -19 -11 -11 -6 6 -8 16 -5 22 11 17 16 13 16 -11z m-1108 -161 c22 -27 26 -36 12 -27 -32 23 -84 86 -84 102 0 29 14 28 27 -3 7 -17 28 -49 45 -72z m1088 76 c0 -16 -51 -79 -82 -102 -12 -8 -6 6 15 35 19 27 38 59 42 72 7 24 25 21 25 -5z m-1593 -70 c30 -72 111 -338 138 -455 19 -79 32 -118 41 -118 26 0 17 142 -21 324 -19 94 -33 172 -31 174 9 8 81 -31 135 -73 l58 -46 22 -127 c18 -107 40 -285 41 -329 0 -7 5 -13 11 -13 16 0 5 309 -13 377 -13 47 -13 50 2 41 20 -13 45 -215 45 -368 l0 -105 -52 -95 c-42 -78 -82 -176 -109 -268 -3 -11 -8 -10 -26 2 -34 24 -149 22 -179 -3 -21 -17 -25 -17 -46 -3 -18 11 -37 13 -81 8 -31 -4 -74 -7 -96 -6 -21 0 -49 -6 -61 -14 -21 -14 -27 -14 -61 0 -34 14 -41 14 -70 1 -22 -11 -36 -27 -44 -51 -6 -20 -12 -36 -13 -36 -1 0 -41 20 -89 44 l-88 45 -29 -25 c-34 -28 -91 -136 -91 -171 0 -31 -10 -29 -75 12 -80 52 -78 52 -108 -9 -15 -30 -27 -57 -27 -60 0 -2 -5 -17 -10 -31 l-10 -27 -36 21 c-68 40 -81 26 -122 -136 l-18 -73 -34 25 c-19 14 -44 25 -56 25 -23 0 -27 -12 -67 -178 l-12 -52 -54 36 -55 37 -29 -34 c-54 -64 -146 -209 -157 -246 -6 -21 -13 -63 -16 -94 -6 -52 -9 -57 -40 -68 -19 -7 -39 -21 -44 -32 -10 -18 -13 -18 -40 -4 -46 24 -64 18 -122 -37 -42 -41 -58 -66 -72 -111 l-18 -58 -23 21 c-36 34 -137 54 -160 31 -6 -6 -33 -4 -70 4 -33 8 -86 15 -117 15 -56 0 -58 -1 -58 -26 0 -14 5 -44 11 -67 8 -33 7 -55 -5 -101 -9 -32 -13 -63 -10 -68 3 -5 -32 10 -78 33 -81 41 -336 130 -410 144 -27 5 -45 18 -65 44 -15 20 -78 96 -140 170 -62 74 -113 139 -113 146 0 6 32 40 72 75 118 107 110 102 152 85 20 -8 36 -22 36 -30 0 -8 6 -15 13 -15 6 0 24 -21 39 -48 15 -26 47 -74 73 -107 25 -33 69 -90 97 -127 28 -37 54 -66 58 -63 9 5 -101 225 -160 320 -41 67 -89 180 -97 230 -9 54 52 231 70 204 1 -2 24 -36 49 -75 62 -95 198 -252 297 -341 81 -74 120 -96 82 -45 -101 130 -251 351 -320 470 l-42 73 20 33 c12 18 40 46 63 62 24 15 60 41 80 57 35 26 39 27 45 10 3 -10 25 -49 48 -88 24 -38 55 -95 70 -125 37 -75 101 -172 163 -249 80 -99 396 -425 400 -412 2 6 -16 35 -40 63 -74 89 -262 339 -310 413 -58 90 -158 268 -158 282 0 6 -22 43 -49 83 -42 62 -48 76 -39 93 6 11 18 48 28 81 19 69 26 74 130 75 l65 0 109 -171 c100 -157 180 -297 319 -558 58 -110 55 -105 63 -97 4 3 -3 32 -14 64 -12 32 -35 103 -51 159 -54 179 -156 359 -327 582 l-64 82 0 73 c0 112 1 113 83 132 40 9 101 19 137 22 l65 5 67 -133 c36 -74 123 -219 193 -324 129 -194 155 -228 163 -221 4 5 -211 439 -327 658 l-72 136 88 21 c150 35 164 35 247 11 42 -13 76 -28 76 -34 0 -6 9 -29 21 -50 11 -22 37 -85 56 -140 37 -107 91 -216 152 -306 21 -30 59 -85 84 -123 25 -37 51 -75 56 -85 5 -9 13 -14 17 -10 4 4 -7 38 -24 75 -17 38 -40 91 -50 118 -11 28 -49 111 -85 185 -63 132 -95 221 -132 367 -18 70 -18 73 0 93 16 18 191 80 227 80 9 0 18 -19 25 -54 15 -70 51 -160 130 -326 68 -143 173 -330 186 -330 13 0 8 19 -18 70 -91 179 -245 610 -245 685 0 36 41 53 147 61 l90 7 6 -55 c4 -30 16 -81 27 -114 26 -77 203 -430 208 -415 2 6 -16 73 -41 148 -142 438 -156 496 -124 521 26 21 78 23 159 6 l83 -17 17 -136 c16 -123 56 -280 79 -305 16 -17 20 2 10 40 -27 105 -52 472 -33 500 4 6 37 32 74 57 61 43 72 47 126 47 l59 0 11 -52 c7 -29 24 -114 38 -188 14 -74 53 -217 85 -318 32 -100 59 -184 59 -187 0 -3 5 -5 11 -5 7 0 9 11 6 28 -24 122 -69 332 -87 401 -44 175 -67 307 -62 359 l5 52 54 0 c53 0 54 -1 70 -37z m2157 21 c15 -38 3 -126 -49 -359 -31 -137 -68 -301 -82 -363 -21 -97 -25 -139 -9 -121 2 2 28 81 59 174 56 168 94 314 116 450 7 39 17 87 23 108 11 37 11 37 67 37 49 0 63 -5 123 -46 37 -25 73 -55 79 -67 20 -36 -3 -345 -37 -514 -12 -60 13 -35 39 40 36 103 44 137 58 270 13 115 13 117 39 117 14 0 50 7 80 15 45 12 64 13 102 3 44 -11 46 -13 50 -51 3 -28 -8 -78 -33 -156 -88 -277 -151 -474 -156 -487 -3 -8 0 -14 6 -14 7 0 17 15 23 33 6 17 49 106 95 196 85 169 123 271 123 335 l0 36 85 0 c90 0 151 -17 161 -45 8 -21 -96 -361 -148 -485 -22 -52 -60 -139 -86 -193 -25 -53 -42 -100 -39 -104 9 -8 2 -17 75 107 107 184 229 456 253 563 9 44 16 56 28 53 135 -39 196 -61 218 -80 l26 -23 -22 -84 c-39 -149 -73 -242 -124 -344 -28 -55 -77 -163 -109 -240 -33 -77 -62 -146 -65 -154 -31 -72 167 209 239 339 20 36 53 112 73 170 20 58 48 131 63 162 26 56 29 58 91 78 79 25 104 25 218 0 92 -20 123 -29 123 -36 0 -2 -35 -70 -79 -151 -111 -209 -324 -643 -318 -649 7 -7 198 273 283 416 38 63 85 150 104 193 l35 79 65 -5 c36 -3 98 -12 138 -22 86 -20 92 -29 92 -136 0 -68 -1 -70 -51 -131 -73 -92 -199 -280 -253 -379 -40 -75 -156 -399 -156 -436 0 -25 19 -12 29 20 6 18 30 64 52 102 23 39 74 131 114 205 40 74 119 208 176 297 57 89 109 169 114 178 9 14 21 15 99 8 l88 -8 26 -88 25 -88 -36 -52 c-20 -29 -63 -104 -96 -168 -81 -159 -151 -264 -305 -462 -72 -93 -139 -180 -150 -194 -10 -13 -16 -27 -13 -30 7 -7 309 302 384 394 76 92 123 164 168 253 20 41 43 82 50 90 7 8 31 48 53 88 35 64 41 71 53 56 7 -9 39 -33 70 -55 57 -38 109 -92 109 -111 0 -28 -200 -337 -340 -525 -104 -140 156 96 284 257 37 47 81 109 98 139 29 50 32 53 45 35 8 -10 25 -56 39 -101 l26 -81 -33 -88 c-17 -49 -50 -118 -72 -154 -59 -97 -170 -320 -162 -328 3 -4 11 2 17 12 6 10 40 55 76 100 36 44 86 113 112 151 56 85 88 121 122 134 26 10 50 -6 148 -97 19 -17 37 -32 41 -32 3 0 11 -11 18 -24 13 -23 9 -29 -50 -98 -120 -139 -204 -240 -212 -254 -4 -7 -27 -18 -50 -24 -110 -28 -331 -106 -408 -145 l-87 -42 -7 51 c-4 28 -7 93 -5 143 2 92 1 93 -25 103 -31 12 -99 -1 -157 -31 -34 -17 -45 -19 -68 -9 -36 15 -127 -9 -155 -40 -19 -20 -19 -20 -37 40 -15 49 -30 72 -71 111 -62 59 -77 65 -117 44 -30 -15 -32 -15 -61 10 -17 14 -39 25 -50 25 -15 0 -19 7 -19 38 0 81 -50 219 -122 339 -48 79 -64 83 -136 35 l-59 -41 -6 77 c-2 43 -12 94 -20 115 -14 32 -20 37 -49 37 -20 0 -45 -10 -63 -24 l-30 -24 -12 71 c-24 143 -61 181 -135 138 l-38 -22 0 28 c0 47 -20 104 -45 129 -37 36 -69 31 -125 -22 l-49 -46 -11 44 c-26 97 -97 188 -147 188 -11 0 -50 -22 -86 -50 l-66 -50 -11 34 c-17 52 -42 70 -87 62 -57 -10 -59 -10 -254 19 -33 5 -54 3 -76 -8 -27 -15 -31 -14 -46 1 -11 10 -39 17 -82 20 -62 4 -66 3 -93 -26 l-29 -30 -12 51 c-15 59 -159 342 -232 458 -51 79 -72 139 -49 139 9 0 11 14 5 55 -9 74 0 112 28 117 44 8 46 3 40 -117 -6 -115 1 -145 31 -145 13 0 36 158 36 241 0 33 6 54 21 70 l20 24 -6 -40 c-20 -116 -25 -169 -25 -262 0 -59 4 -103 10 -103 10 0 16 30 25 130 7 80 45 305 54 317 26 37 176 132 188 119 3 -2 -10 -73 -27 -158 -38 -186 -51 -348 -27 -348 11 0 23 33 46 133 34 144 124 429 147 465 12 18 24 22 63 22 35 0 51 -4 55 -16z m-1636 -330 c21 -6 22 -11 22 -103 0 -88 -3 -102 -32 -164 l-33 -68 2 163 c0 90 2 166 2 171 1 8 9 9 39 1z m157 -34 c3 0 5 8 6 18 0 9 5 4 9 -12 8 -25 3 -35 -38 -86 -26 -33 -47 -58 -48 -57 -1 1 2 22 6 47 5 25 9 62 10 84 l0 38 25 -16 c13 -9 27 -16 30 -16z m385 -540 c10 -5 27 -25 39 -43 18 -30 19 -40 10 -101 -5 -38 -7 -72 -4 -75 9 -8 23 18 30 56 3 18 12 48 20 67 14 32 17 35 41 26 14 -6 36 -10 49 -10 14 0 47 -20 82 -51 60 -53 120 -89 148 -89 10 0 28 -25 47 -66 34 -72 47 -155 47 -306 1 -49 5 -88 10 -88 4 0 14 49 21 110 l13 109 22 -23 c12 -13 26 -25 31 -27 24 -9 91 -220 108 -336 6 -40 4 -45 -41 -92 -27 -27 -60 -54 -75 -60 -26 -10 -39 -31 -19 -31 21 0 79 25 108 46 17 13 38 24 47 24 8 0 20 16 27 35 16 42 36 45 77 10 18 -15 42 -25 61 -25 26 0 34 -5 42 -28 5 -15 19 -33 31 -41 18 -11 22 -11 31 5 19 33 69 74 91 74 45 0 62 -31 72 -123 5 -54 10 -68 27 -73 13 -4 23 -1 29 10 11 19 51 21 67 3 13 -16 48 -144 41 -151 -3 -2 -50 8 -105 24 -55 15 -119 31 -142 35 -39 6 -43 5 -43 -13 0 -22 4 -24 210 -99 52 -19 197 -61 321 -93 124 -33 338 -95 475 -140 137 -45 319 -101 404 -126 301 -87 425 -137 745 -300 268 -137 477 -334 760 -718 l58 -79 -89 7 c-99 8 -287 52 -380 90 -33 13 -120 56 -194 95 -136 72 -150 78 -150 62 0 -15 61 -63 155 -123 71 -45 114 -83 203 -180 166 -183 164 -172 30 -137 -126 33 -200 65 -327 141 -99 59 -888 584 -1096 729 -548 381 -1065 597 -1747 730 -70 14 -118 28 -118 35 0 6 -8 22 -19 35 -10 13 -24 41 -30 61 -7 21 -27 49 -44 64 -28 23 -33 34 -37 88 l-5 61 -32 0 c-27 0 -34 5 -43 29 -6 16 -21 43 -33 60 -13 17 -26 39 -30 49 -11 31 -37 30 -98 -1 -63 -33 -99 -32 -112 2 -7 17 -77 39 -112 34 -15 -2 -30 4 -39 17 -18 25 -70 25 -147 -2 l-57 -19 -26 23 c-31 26 -54 30 -62 9 -5 -12 -12 -11 -47 4 -53 24 -77 13 -77 -34 0 -30 -3 -34 -31 -38 l-31 -5 6 56 c9 77 23 122 46 151 19 25 20 25 20 3 0 -47 19 -30 33 29 9 39 15 53 16 36 0 -16 5 -28 10 -28 9 0 41 94 41 119 0 10 148 222 176 251 12 12 14 12 14 -3 0 -9 5 -17 10 -17 6 0 10 8 10 18 0 10 25 42 55 72 54 53 55 54 55 27 0 -35 26 -87 44 -87 7 0 25 18 40 40 28 43 79 80 109 80 9 0 17 6 17 14 0 14 -21 26 -45 26 -21 0 -83 -58 -102 -94 l-16 -31 -10 35 c-7 29 -4 43 17 86 25 49 28 51 76 57 27 3 63 13 81 22 39 21 51 8 43 -45 -4 -24 -1 -40 8 -47 17 -14 78 -5 78 12 0 19 -28 27 -52 14 -18 -10 -20 -9 -14 6 3 9 9 34 12 56 7 43 7 43 34 29z m-841 -277 l22 -20 -20 -79 c-67 -264 -75 -358 -40 -489 19 -76 25 -235 8 -235 -13 0 -49 99 -49 134 0 41 -10 44 -56 15 -56 -34 -113 -107 -130 -166 -13 -44 -20 -54 -42 -58 -15 -3 -129 -33 -253 -66 -124 -33 -243 -62 -263 -66 -36 -6 -37 -5 -25 15 10 16 20 19 46 15 28 -5 33 -3 33 15 0 36 40 116 78 155 42 44 54 46 72 12 16 -30 43 -34 38 -6 -2 12 13 33 43 60 46 40 47 40 64 20 24 -26 30 -22 57 30 13 25 36 54 51 65 26 19 30 19 40 5 19 -25 39 -27 77 -9 19 10 61 21 93 25 65 8 74 25 24 43 -45 16 -65 15 -114 -7 -36 -17 -43 -17 -54 -5 -6 8 -28 14 -49 14 -37 0 -72 -23 -95 -64 -9 -15 -14 -15 -44 -5 -33 12 -35 11 -79 -36 -39 -40 -48 -46 -64 -36 -10 6 -24 11 -32 11 -24 0 -134 -109 -147 -145 -7 -18 -22 -38 -34 -43 -25 -12 -75 -94 -77 -129 -2 -18 -11 -26 -43 -34 -22 -5 -182 -54 -355 -109 -173 -54 -351 -109 -395 -120 -155 -41 -305 -91 -407 -134 -57 -24 -141 -61 -188 -81 l-85 -36 -28 33 c-99 116 -101 141 -8 71 35 -26 70 -52 77 -58 7 -5 16 -6 20 -3 7 7 -31 59 -99 138 -44 50 -67 97 -67 135 0 31 5 31 84 -1 50 -20 79 -40 128 -92 36 -37 73 -79 82 -94 10 -16 22 -28 27 -28 19 0 7 36 -36 107 -25 40 -45 76 -45 78 0 15 27 -2 88 -55 65 -56 92 -71 92 -52 0 4 -5 13 -11 19 -25 25 38 189 89 229 l26 21 55 -25 c73 -32 88 -47 113 -104 11 -26 27 -48 34 -48 8 0 14 1 14 3 0 17 -36 106 -50 122 -9 11 -24 32 -33 47 -26 42 -2 44 57 5 l53 -36 -1 132 c-1 144 -2 138 78 310 l37 78 58 -45 c53 -41 140 -149 202 -251 38 -63 35 -18 -4 61 -64 128 -71 156 -64 252 3 48 10 98 14 111 9 23 10 23 70 -27 57 -48 84 -77 109 -118 25 -41 26 0 2 49 -24 49 -25 58 -17 137 4 47 13 102 19 123 11 38 12 39 32 20 26 -22 123 -170 132 -200 12 -36 30 -28 22 10 -4 17 -11 56 -16 85 -5 29 -16 65 -26 80 -15 26 -15 33 0 92 9 35 18 66 21 68 11 11 149 -121 208 -199 l18 -24 -5 25 c-3 14 -12 58 -22 97 l-17 73 31 62 c17 35 42 77 54 95 l24 31 64 -52 c81 -65 98 -95 156 -276 26 -80 51 -149 56 -154 18 -22 11 19 -53 309 -18 79 -19 95 -7 130 10 31 19 41 39 43 24 3 29 -5 77 -117 29 -65 52 -124 52 -130 0 -6 5 -11 10 -11 16 0 12 26 -19 144 l-28 108 50 -5 c27 -2 65 0 83 6 25 8 37 7 49 -3 21 -17 102 -166 121 -224 9 -25 20 -46 25 -46 5 0 9 2 9 5 0 17 -51 259 -57 268 -3 5 3 16 13 24 27 20 105 12 133 -14z m1724 -3 c5 -4 4 -25 -2 -46 -19 -71 -52 -256 -47 -261 3 -3 10 7 17 23 29 74 114 235 134 254 19 18 26 19 51 10 17 -7 51 -9 82 -5 28 4 52 5 52 2 0 -5 -49 -207 -56 -231 -4 -11 -2 -17 5 -15 11 4 68 125 98 206 40 114 122 19 88 -102 -19 -64 -74 -339 -70 -344 8 -7 25 11 25 27 0 30 90 285 115 329 26 44 140 138 155 128 17 -11 90 -140 96 -171 4 -19 -2 -61 -15 -108 -12 -42 -21 -81 -21 -86 0 -20 18 -9 29 18 7 16 52 69 102 118 100 99 99 99 119 2 12 -52 11 -63 -3 -87 -9 -15 -21 -57 -27 -94 -5 -36 -13 -73 -16 -81 -3 -9 -2 -16 3 -16 6 0 29 33 53 73 45 77 106 157 119 157 12 0 41 -143 41 -201 0 -31 -8 -65 -21 -90 -30 -60 -20 -84 14 -33 26 38 153 151 161 143 7 -7 26 -147 26 -189 0 -28 -16 -77 -51 -153 -28 -62 -53 -118 -56 -126 -17 -40 22 6 82 94 75 112 107 149 170 194 l43 31 41 -86 c67 -141 84 -208 78 -318 -3 -52 -8 -99 -11 -105 -4 -5 -2 -12 3 -15 5 -4 12 -2 16 3 3 6 26 24 52 41 35 24 48 28 54 19 8 -13 2 -25 -34 -66 -20 -23 -61 -133 -52 -141 8 -9 33 18 46 51 19 48 43 70 110 103 l61 29 39 -44 c51 -57 88 -168 72 -211 -17 -44 0 -38 71 23 55 49 96 77 110 77 3 0 -8 -20 -24 -44 -17 -24 -43 -68 -59 -98 l-28 -55 -84 34 c-46 19 -163 57 -259 84 -96 28 -310 92 -475 144 -165 52 -328 102 -362 111 -42 11 -63 22 -63 32 0 30 -70 142 -89 142 -12 0 -20 10 -24 28 -7 36 -84 122 -130 147 -32 17 -37 17 -58 3 -23 -14 -25 -13 -57 28 -26 35 -39 44 -63 44 -18 0 -52 14 -83 35 -57 38 -114 46 -136 20 -10 -12 -15 -10 -36 14 -29 34 -125 71 -186 71 -43 0 -46 2 -52 31 -3 17 -6 92 -6 165 0 84 -6 164 -16 214 -16 81 -16 81 6 105 30 32 106 40 133 15z m-1540 -604 c14 -13 29 -40 32 -60 10 -50 23 -45 30 12 4 26 8 52 9 57 4 16 33 -46 40 -87 9 -51 23 -48 32 7 7 51 19 61 84 71 l43 7 -6 -69 c-4 -38 -10 -84 -13 -101 -4 -19 -2 -33 4 -33 12 0 52 91 59 136 6 33 7 34 56 34 l50 0 -6 -39 c-3 -22 -15 -60 -28 -85 -12 -25 -19 -49 -15 -53 10 -10 50 40 80 100 22 43 26 46 35 29 16 -29 0 -68 -64 -165 -56 -85 -67 -120 -24 -81 26 24 144 194 153 220 3 11 22 28 41 37 34 16 35 16 35 -4 0 -12 -14 -62 -30 -111 -17 -50 -28 -93 -25 -97 3 -3 9 -1 13 5 4 6 20 27 35 47 16 20 35 56 42 79 l13 43 16 -37 c21 -49 21 -49 -14 -108 -39 -65 -18 -66 43 -1 l45 48 6 -30 c17 -82 -4 -115 -118 -185 -67 -42 -57 -52 26 -28 63 18 117 55 139 96 l17 30 16 -40 c9 -22 16 -47 16 -54 0 -19 -48 -58 -120 -98 -61 -33 -71 -45 -46 -54 26 -10 95 17 146 57 l51 40 -20 -38 c-29 -56 -90 -107 -153 -127 -21 -6 -24 -26 -5 -26 6 0 34 7 61 15 69 21 76 20 76 -15 0 -26 -4 -30 -27 -30 -38 0 -193 -43 -193 -53 0 -5 25 -7 55 -5 30 1 55 1 55 -2 0 -3 -26 -18 -58 -35 -43 -23 -57 -35 -56 -51 0 -19 -12 -26 -85 -48 -46 -15 -139 -36 -205 -47 -118 -21 -121 -21 -205 -3 -67 14 -80 19 -61 25 23 6 22 8 -24 28 -27 12 -51 19 -53 17 -8 -8 8 -27 31 -36 20 -8 20 -9 -4 -9 -40 0 -166 54 -220 95 -28 21 -62 55 -76 75 -22 32 -24 44 -19 81 6 34 14 47 40 64 28 18 35 19 56 8 13 -7 27 -10 32 -7 4 2 21 2 37 -2 24 -5 27 -9 17 -19 -9 -11 -14 -10 -24 3 -6 9 -14 13 -18 9 -8 -8 21 -103 41 -135 14 -22 82 -58 92 -49 2 3 -10 26 -27 51 -17 25 -31 50 -31 54 0 5 -10 16 -22 25 l-23 17 22 -5 c13 -2 26 0 29 5 9 14 31 -8 70 -68 18 -29 52 -64 74 -79 42 -28 63 -27 39 2 -29 36 45 -13 86 -56 50 -53 89 -70 157 -70 77 1 129 15 185 52 28 18 59 38 69 44 10 7 16 14 13 18 -7 7 -90 -21 -99 -33 -10 -16 -104 -41 -152 -41 -62 0 -103 18 -152 66 -22 22 -63 51 -90 65 -30 15 -50 31 -49 40 1 8 5 26 9 41 9 40 -2 73 -37 109 l-30 31 30 -7 c34 -7 71 8 71 30 0 8 -24 30 -52 49 -84 55 -116 84 -98 89 8 3 45 15 81 27 72 23 113 55 90 69 -8 6 -35 -1 -68 -16 -30 -14 -72 -27 -94 -30 -22 -3 -42 -9 -45 -14 -2 -4 -22 11 -44 35 -39 42 -40 45 -40 115 0 57 3 71 15 71 9 0 18 7 22 16 4 12 12 1 25 -35 29 -77 42 -65 36 32 -7 115 -1 126 45 83z m-284 -178 c7 -20 22 -47 35 -60 12 -12 32 -39 44 -59 21 -34 65 -68 192 -147 30 -19 46 -31 35 -27 -76 28 -143 45 -184 45 -39 0 -52 -5 -76 -30 -15 -16 -41 -34 -56 -39 -28 -9 -30 -8 -51 32 -18 34 -23 63 -26 155 l-4 114 33 34 c36 37 41 36 58 -18z m2206 19 c16 -13 15 -14 -13 -9 -18 2 -29 8 -26 13 7 12 17 11 39 -4z m172 -89 c42 -43 82 -117 83 -151 0 -22 26 -33 44 -18 11 9 18 7 30 -10 8 -13 14 -24 13 -26 -4 -3 -164 34 -187 43 -8 4 -28 8 -44 10 -39 5 -46 14 -12 14 26 0 28 3 22 28 -8 38 -14 125 -8 140 7 19 15 15 59 -30z m-2495 -96 c3 -34 1 -57 -4 -50 -4 7 -7 40 -7 73 1 73 6 62 11 -23z m-56 -9 c11 -55 35 -111 54 -128 11 -10 20 -28 20 -40 0 -11 6 -30 14 -40 14 -19 9 -21 -107 -53 -308 -84 -758 -306 -1077 -532 -152 -107 -1047 -702 -1141 -758 -48 -29 -118 -65 -157 -82 -71 -30 -240 -75 -249 -67 -5 6 54 75 166 193 58 61 118 112 186 156 99 64 144 103 132 114 -3 3 -66 -26 -140 -65 -169 -88 -231 -113 -371 -150 -131 -35 -294 -52 -281 -30 55 89 275 359 380 464 189 190 302 263 672 435 153 71 228 97 538 189 94 28 266 82 382 120 117 38 268 83 335 101 270 71 368 100 493 148 72 27 133 50 137 51 4 0 10 -11 14 -26z m402 -140 c68 -16 71 -18 50 -30 -13 -7 -32 -12 -43 -13 -12 0 -26 -5 -32 -11 -7 -7 -25 -8 -54 -2 -39 8 -44 12 -41 32 2 13 -2 28 -10 32 -23 15 52 10 130 -8z m1168 -43 c34 0 9 -17 -43 -29 -32 -7 -74 -21 -93 -31 -34 -17 -37 -17 -59 -1 l-23 17 22 45 22 45 80 -23 c44 -13 87 -23 94 -23z m-1358 -6 c-13 -14 -19 -14 -39 -3 -24 13 -24 13 11 19 43 7 48 4 28 -16z m276 -43 c3 -5 -6 -11 -21 -14 -26 -5 -26 -4 -8 9 22 17 22 17 29 5z m-3574 -75 c36 -8 115 -25 175 -36 67 -13 121 -29 138 -41 16 -11 35 -18 44 -15 28 11 432 -129 519 -180 53 -31 58 -25 -79 -94 -105 -54 -223 -129 -300 -193 l-48 -40 -156 6 c-118 5 -207 1 -362 -14 -113 -10 -217 -21 -231 -24 -14 -3 -104 -14 -200 -25 -96 -11 -240 -34 -319 -50 -80 -17 -147 -30 -150 -30 -11 0 68 50 189 119 68 39 168 88 224 110 93 36 114 40 256 51 152 12 177 16 149 23 -29 8 -406 68 -466 74 -35 3 -63 9 -62 12 0 9 106 93 169 134 30 20 84 48 120 63 76 31 121 29 317 -12 130 -27 143 -28 143 -15 0 4 -33 16 -72 26 -84 19 -318 97 -318 105 0 3 30 21 65 41 63 34 69 35 128 28 34 -4 91 -15 127 -23z m7464 -3 c-9 -50 -19 -68 -74 -133 -61 -72 -94 -120 -86 -127 6 -6 16 0 105 69 85 67 78 28 -12 -72 l-39 -42 -108 48 -108 48 46 59 c67 85 132 141 194 165 80 32 90 30 82 -15z m1136 -32 c40 -21 68 -41 63 -43 -15 -8 -298 -98 -342 -109 -24 -6 -40 -14 -35 -19 5 -5 57 2 119 15 61 14 146 28 190 31 78 6 83 5 159 -29 76 -36 163 -94 239 -160 l39 -33 -99 -13 c-54 -7 -150 -22 -213 -33 -63 -11 -142 -23 -174 -27 -34 -3 -61 -11 -64 -19 -2 -8 5 -11 25 -10 15 2 85 -1 156 -5 114 -8 138 -13 230 -48 98 -39 236 -111 362 -191 33 -21 56 -38 50 -38 -5 0 -68 11 -140 25 -147 29 -510 77 -750 100 -169 16 -360 18 -460 6 l-60 -8 -55 47 c-84 69 -191 137 -322 205 l-117 61 57 31 c62 34 378 151 482 178 36 9 72 20 81 25 8 4 53 15 100 25 46 9 136 27 199 40 105 22 145 29 192 34 9 0 49 -16 88 -38z m-8212 -628 c-8 -10 -43 -52 -79 -93 -35 -41 -78 -94 -94 -118 -17 -24 -41 -45 -55 -48 -229 -53 -489 -134 -830 -260 -368 -136 -450 -169 -595 -242 -72 -36 -172 -85 -224 -109 l-94 -43 137 140 c184 188 211 212 358 322 160 118 329 206 563 293 223 83 289 100 462 120 76 8 192 22 258 30 66 8 136 16 155 18 19 2 39 5 44 5 5 1 2 -6 -6 -15z m7891 -58 c313 -39 368 -52 631 -152 342 -130 564 -278 855 -572 93 -94 166 -171 162 -171 -4 0 -93 43 -199 96 -207 103 -332 157 -558 239 -80 29 -219 81 -309 114 -168 63 -553 181 -652 201 -49 9 -60 16 -87 53 -16 23 -64 82 -106 131 -42 48 -76 90 -76 92 0 9 65 3 339 -31z m-8205 -362 c-35 -60 -68 -115 -73 -124 -5 -9 -47 -31 -93 -49 -120 -48 -285 -132 -407 -207 -231 -143 -836 -566 -996 -697 -94 -78 -91 -76 -65 -26 40 78 131 213 189 280 183 211 340 354 586 529 l150 107 220 82 c121 45 292 111 380 146 88 36 163 65 166 65 4 1 -22 -47 -57 -106z m8702 -153 c205 -76 215 -82 340 -171 244 -176 466 -377 626 -569 51 -62 143 -202 183 -279 l17 -35 -53 46 c-150 126 -755 554 -1026 724 -132 84 -295 167 -426 219 -96 38 -99 40 -124 89 -14 28 -47 85 -73 127 l-47 75 186 -73 c102 -41 281 -109 397 -153z m-8525 -41 c-42 -17 -223 -121 -326 -187 -148 -96 -380 -275 -650 -502 -283 -239 -269 -226 -257 -234 5 -3 29 11 53 31 28 23 17 8 -32 -43 -159 -166 -307 -339 -436 -510 -21 -28 -21 -26 3 35 61 154 197 391 311 543 32 42 128 150 213 239 144 152 166 170 310 264 85 56 227 144 315 196 284 169 265 160 362 165 48 3 89 7 92 9 2 3 18 5 35 4 30 0 30 -1 7 -10z m7980 -43 c45 -2 79 -11 116 -30 86 -43 398 -232 563 -341 144 -95 166 -113 311 -266 202 -213 298 -343 427 -579 43 -79 139 -292 124 -275 -5 6 -37 48 -72 95 -86 115 -181 225 -404 469 -39 43 -40 44 -6 17 21 -18 36 -24 38 -17 2 7 2 13 1 15 -5 3 -276 230 -424 354 -136 115 -421 328 -525 392 -47 30 -137 82 -200 117 l-115 64 51 -6 c28 -4 80 -8 115 -9z"/>
 <path d="M5647 5849 c-32 -18 -74 -139 -49 -139 4 0 20 25 35 55 29 60 51 69 82 35 37 -41 49 -11 14 34 -21 27 -51 33 -82 15z"/>
 <path d="M5630 5427 c0 -22 26 -51 38 -43 16 10 15 22 -4 40 -19 19 -34 21 -34 3z"/>
 <path d="M6296 5425 c-9 -9 -16 -23 -16 -31 0 -21 28 -17 41 7 15 29 -3 46 -25 24z"/>
 <path d="M5480 3620 c0 -16 4 -30 9 -30 10 0 22 40 15 52 -11 18 -24 6 -24 -22z"/>
 <path d="M5480 3194 c0 -9 7 -14 17 -12 25 5 28 28 4 28 -12 0 -21 -6 -21 -16z"/>
 <path d="M5497 3144 c-8 -8 1 -24 14 -24 5 0 9 7 9 15 0 15 -12 20 -23 9z"/>
 <path d="M5160 3417 c0 -19 21 -37 42 -37 23 0 23 12 0 33 -22 20 -42 22 -42 4z"/>
 </g>

</svg>